<svg width="20" height="20" viewBox="0 0 20 20" fill="none" xmlns="http://www.w3.org/2000/svg">
<path d="M10.5 6.25067C10.5 5.97401 10.2757 5.74973 9.99903 5.74973C9.72236 5.74973 9.49808 5.97401 9.49808 6.25067H10.5ZM9.49808 13.7507C9.49808 14.0273 9.72236 14.2516 9.99903 14.2516C10.2757 14.2516 10.5 14.0273 10.5 13.7507H9.49808ZM13.749 10.5016C14.0257 10.5016 14.25 10.2773 14.25 10.0007C14.25 9.72401 14.0257 9.49973 13.749 9.49973V10.5016ZM6.24902 9.49973C5.97236 9.49973 5.74808 9.72401 5.74808 10.0007C5.74808 10.2773 5.97236 10.5016 6.24902 10.5016V9.49973ZM19.5 10.0007C19.5 4.75526 15.2444 0.499726 9.99903 0.499726V1.50162C14.6911 1.50162 18.4981 5.30859 18.4981 10.0007H19.5ZM9.99903 0.499726C4.75361 0.499726 0.498078 4.75526 0.498078 10.0007H1.49997C1.49997 5.30859 5.30694 1.50162 9.99903 1.50162V0.499726ZM0.498078 10.0007C0.498078 15.2461 4.75361 19.5016 9.99903 19.5016V18.4997C5.30694 18.4997 1.49997 14.6928 1.49997 10.0007H0.498078ZM9.99903 19.5016C15.2444 19.5016 19.5 15.2461 19.5 10.0007H18.4981C18.4981 14.6928 14.6911 18.4997 9.99903 18.4997V19.5016ZM9.49808 6.25067V13.7507H10.5V6.25067H9.49808ZM13.749 9.49973H6.24902V10.5016H13.749V9.49973Z" fill="black"/>
</svg>
