<svg width="18" height="18" viewBox="0 0 18 18" fill="none" xmlns="http://www.w3.org/2000/svg">
<path d="M11.1199 8.9987L17.0574 3.0612C17.3392 2.7799 17.4977 2.39819 17.4981 2.00002C17.4984 1.60186 17.3406 1.21986 17.0593 0.938071C16.778 0.656278 16.3963 0.497771 15.9981 0.49742C15.6 0.497068 15.218 0.654901 14.9362 0.936196L8.99867 6.8737L3.06117 0.936196C2.77937 0.654403 2.39718 0.496094 1.99867 0.496094C1.60015 0.496094 1.21796 0.654403 0.936165 0.936196C0.654373 1.21799 0.496063 1.60018 0.496063 1.9987C0.496063 2.39721 0.654373 2.7794 0.936165 3.0612L6.87367 8.9987L0.936165 14.9362C0.654373 15.218 0.496063 15.6002 0.496063 15.9987C0.496063 16.3972 0.654373 16.7794 0.936165 17.0612C1.21796 17.343 1.60015 17.5013 1.99867 17.5013C2.39718 17.5013 2.77937 17.343 3.06117 17.0612L8.99867 11.1237L14.9362 17.0612C15.218 17.343 15.6002 17.5013 15.9987 17.5013C16.3972 17.5013 16.7794 17.343 17.0612 17.0612C17.343 16.7794 17.5013 16.3972 17.5013 15.9987C17.5013 15.6002 17.343 15.218 17.0612 14.9362L11.1199 8.9987Z" fill="black"/>
</svg>
