<svg width="22" height="19" viewBox="0 0 22 19" fill="none" xmlns="http://www.w3.org/2000/svg">
<path d="M0.700012 1.37695C0.700012 1.83398 1.08673 2.2207 1.52618 2.2207H4.27716L5.63947 11.5195C5.83282 12.8467 6.53595 13.6553 7.88068 13.6553H18.1111C18.5242 13.6553 18.9022 13.3301 18.9022 12.8643C18.9022 12.4072 18.5242 12.082 18.1111 12.082H8.08282C7.66095 12.082 7.39728 11.792 7.33575 11.3438L7.19513 10.4297H18.1815C19.5262 10.4297 20.2381 9.6123 20.4315 8.27637L21.0906 3.87305C21.1082 3.75879 21.1258 3.60938 21.1258 3.5127C21.1258 2.99414 20.7654 2.64258 20.159 2.64258H6.07892L5.93829 1.69336C5.82404 0.928711 5.51642 0.541992 4.54083 0.541992H1.52618C1.08673 0.541992 0.700012 0.928711 0.700012 1.37695ZM7.06329 16.5293C7.06329 17.3818 7.74884 18.0674 8.60138 18.0674C9.45392 18.0674 10.1395 17.3818 10.1395 16.5293C10.1395 15.6768 9.45392 14.9912 8.60138 14.9912C7.74884 14.9912 7.06329 15.6768 7.06329 16.5293ZM15.1756 16.5293C15.1756 17.3818 15.8699 18.0674 16.7225 18.0674C17.575 18.0674 18.2518 17.3818 18.2518 16.5293C18.2518 15.6768 17.575 14.9912 16.7225 14.9912C15.8699 14.9912 15.1756 15.6768 15.1756 16.5293Z" fill="#999999"/>
</svg>
