<svg width="250" height="40" viewBox="0 0 250 40" fill="none" xmlns="http://www.w3.org/2000/svg">
<g clip-path="url(#clip0_95_4503)">
<path d="M144.987 17.9837C145.031 17.9403 145.074 17.8969 145.118 17.8535C146.892 16.1229 149.309 15.0488 151.978 15.0217C152.01 15.0217 152.038 15.0217 152.07 15.0217C152.103 15.0217 152.13 15.0217 152.163 15.0217C154.832 15.0434 157.255 16.1229 159.023 17.8535C159.067 17.8969 159.11 17.9403 159.154 17.9837L159.165 17.9728C159.574 18.3471 160.109 18.5804 160.709 18.5804C161.97 18.5804 162.99 17.566 162.99 16.3128C162.99 15.7215 162.756 15.1844 162.379 14.7775L162.39 14.7667C162.346 14.7233 162.303 14.6799 162.259 14.6365C159.661 12.0868 156.098 10.5027 152.163 10.481C152.13 10.481 152.103 10.481 152.07 10.481C152.038 10.481 152.01 10.481 151.978 10.481C148.043 10.5027 144.479 12.0868 141.882 14.6365C141.838 14.6799 141.795 14.7233 141.751 14.7667C139.186 17.349 137.593 20.8914 137.571 24.8028C137.571 24.8354 137.571 24.8625 137.571 24.895C137.571 24.9276 137.571 24.9547 137.571 24.9873C137.593 28.8986 139.186 32.4411 141.751 35.0234C141.795 35.0668 141.838 35.1102 141.882 35.1536C144.479 37.7033 148.043 39.2874 151.978 39.3091C152.01 39.3091 152.038 39.3091 152.07 39.3091C152.103 39.3091 152.13 39.3091 152.163 39.3091C156.098 39.2874 159.661 37.7033 162.259 35.1536C162.303 35.1102 162.346 35.0668 162.39 35.0234L162.379 35.0126C162.756 34.6057 162.99 34.074 162.99 33.4773C162.99 32.2241 161.97 31.2097 160.709 31.2097C160.114 31.2097 159.574 31.4429 159.165 31.8173L159.154 31.8064C159.11 31.8498 159.067 31.8932 159.023 31.9366C157.249 33.6672 154.832 34.7413 152.163 34.7684C152.13 34.7684 152.103 34.7684 152.07 34.7684C152.038 34.7684 152.01 34.7684 151.978 34.7684C149.309 34.7467 146.886 33.6672 145.118 31.9366C145.074 31.8932 145.031 31.8498 144.987 31.8064C143.246 30.0433 142.166 27.6401 142.138 24.9873C142.138 24.9547 142.138 24.9276 142.138 24.895C142.138 24.8625 142.138 24.8354 142.138 24.8028C142.16 22.15 143.246 19.7414 144.987 17.9837Z" fill="#0AB27D"/>
<path d="M196.645 24.895V23.9348C196.645 23.7612 196.612 23.5985 196.574 23.4357C195.837 16.1609 189.66 10.481 182.145 10.481C174.134 10.481 167.645 16.9367 167.645 24.895C167.645 32.8534 174.139 39.3091 182.145 39.3091C185.992 39.3091 189.485 37.8172 192.077 35.3923V37.3887C192.077 38.452 192.945 39.3091 194.009 39.3091H194.708C195.777 39.3091 196.639 38.4465 196.639 37.3887V24.895H196.645ZM182.145 34.7684C176.666 34.7684 172.213 30.3363 172.213 24.895C172.213 19.4538 176.672 15.0217 182.145 15.0217C187.619 15.0217 192.077 19.4538 192.077 24.895C192.077 30.3417 187.619 34.7684 182.145 34.7684Z" fill="#0AB27D"/>
<path d="M217.038 10.4918V10.481C217.006 10.481 216.978 10.481 216.946 10.481C216.913 10.481 216.886 10.481 216.853 10.481C213.044 10.5027 209.584 11.9891 207.008 14.3978V12.7486C207.008 11.4955 205.988 10.481 204.727 10.481C203.466 10.481 202.446 11.4955 202.446 12.7486V37.0415C202.446 38.2946 203.466 39.3091 204.727 39.3091C205.988 39.3091 207.008 38.2946 207.008 37.0415V24.9873C207.008 24.9547 207.008 24.9276 207.008 24.895C207.008 24.8625 207.008 24.8354 207.008 24.8028C207.03 22.15 208.116 19.7414 209.857 17.9837C209.9 17.9403 209.944 17.8969 209.988 17.8535C211.761 16.1229 214.179 15.0488 216.847 15.0217C216.875 15.0217 216.902 15.0217 216.924 15.0217H216.946C216.946 15.0217 217 15.0217 217.028 15.0217V15.0108C218.245 14.962 219.221 13.9746 219.221 12.7486C219.221 11.5226 218.25 10.5352 217.028 10.4864L217.038 10.4918Z" fill="#0AB27D"/>
<path d="M249.995 24.8083C249.984 22.9204 249.602 21.1193 248.93 19.4647C248.909 19.4104 248.887 19.3508 248.865 19.2965C248.145 17.5985 247.102 16.0633 245.814 14.7721C245.771 14.7287 245.727 14.6853 245.683 14.6419C244.385 13.3671 242.84 12.3309 241.132 11.6094C241.077 11.5877 241.017 11.566 240.963 11.5443C239.304 10.8716 237.492 10.4973 235.588 10.4864C235.555 10.4864 235.527 10.4864 235.495 10.4864C235.462 10.4864 235.435 10.4864 235.402 10.4864C233.503 10.4973 231.691 10.8716 230.027 11.5443C229.972 11.566 229.912 11.5877 229.857 11.6094C228.149 12.3255 226.605 13.3616 225.306 14.6419C225.262 14.6853 225.219 14.7287 225.175 14.7721C223.893 16.0633 222.85 17.5985 222.125 19.2965C222.103 19.3508 222.081 19.4104 222.059 19.4647C221.382 21.1139 221.006 22.915 220.995 24.8083C220.995 24.8408 220.995 24.8679 220.995 24.9005C220.995 24.933 220.995 24.9602 220.995 24.9927C221.006 26.8806 221.388 28.6817 222.059 30.3363C222.081 30.3905 222.103 30.4502 222.125 30.5044C222.845 32.2024 223.887 33.7377 225.175 35.0288C225.219 35.0722 225.262 35.1156 225.306 35.159C226.605 36.4339 228.149 37.4701 229.857 38.1916C229.912 38.2133 229.972 38.235 230.027 38.2567C231.686 38.9294 233.497 39.3037 235.402 39.3145C235.435 39.3145 235.462 39.3145 235.495 39.3145H236.892C240.477 39.3145 243.724 37.8824 246.093 35.5605C246.136 35.5171 246.18 35.4737 246.224 35.4303H246.218C246.595 35.018 246.829 34.4809 246.829 33.8896C246.829 32.6364 245.809 31.622 244.548 31.622C243.948 31.622 243.413 31.8552 243.004 32.2296H242.998C242.955 32.2675 242.911 32.3109 242.867 32.3489C242.562 32.6473 242.234 32.9131 241.891 33.1627C241.181 33.6726 240.395 34.0795 239.544 34.3561C239.484 34.3724 239.429 34.3941 239.369 34.4104C238.589 34.6437 237.759 34.7739 236.903 34.7739H235.413C234.13 34.7576 232.913 34.5026 231.789 34.0523C231.735 34.0306 231.675 34.0089 231.62 33.9872C230.469 33.499 229.432 32.7992 228.553 31.942C228.51 31.8986 228.466 31.8552 228.422 31.8118C227.56 30.9384 226.856 29.9077 226.365 28.763C226.343 28.7088 226.321 28.6491 226.299 28.5949C226.114 28.1392 225.961 27.6618 225.846 27.1735H247.724C248.952 27.1735 249.951 26.2025 250 24.9927H250.011V24.9005C250.011 24.8679 250.011 24.8408 250.011 24.8083H249.995ZM241.247 22.6274H225.835C225.95 22.1392 226.103 21.6618 226.288 21.2061C226.31 21.1518 226.332 21.0922 226.354 21.0379C226.845 19.8933 227.549 18.8625 228.411 17.9891C228.455 17.9457 228.499 17.9023 228.542 17.8589C229.421 17.0018 230.458 16.302 231.609 15.8137C231.664 15.792 231.724 15.7703 231.778 15.7486C232.903 15.2983 234.12 15.0434 235.402 15.0325C235.435 15.0325 235.462 15.0325 235.495 15.0325C235.527 15.0325 235.555 15.0325 235.588 15.0325C236.87 15.0434 238.087 15.2983 239.211 15.7486C239.266 15.7703 239.326 15.792 239.38 15.8137C240.532 16.302 241.569 17.0018 242.447 17.8589C242.491 17.9023 242.535 17.9457 242.578 17.9891C243.44 18.8625 244.144 19.8933 244.636 21.0379C244.657 21.0922 244.679 21.1518 244.701 21.2061C244.887 21.6618 245.039 22.1392 245.154 22.6274H241.247Z" fill="#0AB27D"/>
<path d="M47.4122 9.61301C39.401 9.61301 32.9124 16.0687 32.9124 24.0271C32.9124 31.9854 39.4065 38.4411 47.4122 38.4411C51.2595 38.4411 54.7521 36.9493 57.3443 34.5243V36.5207C57.3443 37.584 58.212 38.4411 59.2762 38.4411H59.9747C61.0443 38.4411 61.9065 37.5786 61.9065 36.5207V23.0669C61.9065 22.8933 61.8738 22.7305 61.8301 22.5678C61.0934 15.2929 54.9159 9.61301 47.4013 9.61301H47.4122ZM47.4122 33.9059C41.9332 33.9059 37.4801 29.4737 37.4801 24.0325C37.4801 18.5913 41.9386 14.1591 47.4122 14.1591C52.8858 14.1591 57.3443 18.5913 57.3443 24.0325C57.3443 29.4737 52.8858 33.9059 47.4122 33.9059Z" fill="#0AB27D"/>
<path d="M82.3056 9.62386V9.61301C82.2728 9.61301 82.2455 9.61301 82.2128 9.61301C82.1801 9.61301 82.1528 9.61301 82.12 9.61301C78.3109 9.63471 74.851 11.1211 72.2752 13.5298V11.8806C72.2752 10.6275 71.2547 9.61301 69.9941 9.61301C68.7335 9.61301 67.713 10.6275 67.713 11.8806V36.1735C67.713 37.4267 68.7335 38.4411 69.9941 38.4411C71.2547 38.4411 72.2752 37.4267 72.2752 36.1735V24.1193C72.2752 24.0867 72.2752 24.0596 72.2752 24.0271C72.2752 23.9945 72.2752 23.9674 72.2752 23.9348C72.2971 21.282 73.383 18.8734 75.1239 17.1157C75.1676 17.0723 75.2112 17.0289 75.2549 16.9855C77.0285 15.2549 79.446 14.1808 82.1146 14.1537C82.1419 14.1537 82.1691 14.1537 82.191 14.1537H82.2128C82.2128 14.1537 82.2674 14.1537 82.2947 14.1537V14.1428C83.5116 14.094 84.4885 13.1067 84.4885 11.8806C84.4885 10.6546 83.5171 9.66726 82.2947 9.61843L82.3056 9.62386Z" fill="#0AB27D"/>
<path d="M27.9354 18.5913C27.9136 18.537 27.8918 18.4774 27.8699 18.4231C27.1496 16.7251 26.1073 15.1898 24.8194 13.8987C24.7757 13.8553 24.7321 13.8119 24.6884 13.7685C23.3896 12.4936 21.8452 11.4575 20.1371 10.736C20.0825 10.7143 20.0225 10.6926 19.9679 10.6709C18.3089 9.99818 16.4971 9.62386 14.5926 9.61301C14.5598 9.61301 14.5325 9.61301 14.4998 9.61301C14.4671 9.61301 14.4398 9.61301 14.407 9.61301C12.5079 9.62386 10.6961 9.99818 9.03167 10.6709C8.9771 10.6926 8.91707 10.7143 8.8625 10.736C7.1544 11.4521 5.61001 12.4882 4.31119 13.7685C4.26753 13.8119 4.22388 13.8553 4.18022 13.8987C2.89778 15.1898 1.85545 16.7251 1.12964 18.4231C1.10781 18.4774 1.08598 18.537 1.06415 18.5913C0.392919 20.2459 0.0163716 22.047 0 23.9348C0 23.9674 0 23.9945 0 24.0271C0 24.0596 0 24.0867 0 24.1193C0.0109144 26.0072 0.392919 27.8082 1.06415 29.4629C1.08598 29.5171 1.10781 29.5768 1.12964 29.631C1.84999 31.329 2.89232 32.8643 4.18022 34.1554C4.22388 34.1988 4.26753 34.2422 4.31119 34.2856C5.61001 35.5605 7.1544 36.5966 8.8625 37.3182C8.91707 37.3399 8.9771 37.3616 9.03167 37.3833C10.6907 38.056 12.5025 38.4303 14.407 38.4411C14.4398 38.4411 14.4671 38.4411 14.4998 38.4411H15.8968C19.4822 38.4411 22.7293 37.0089 25.0977 34.6871C25.1413 34.6437 25.185 34.6003 25.2287 34.5569H25.2232C25.5998 34.1446 25.8344 33.6075 25.8344 33.0162C25.8344 31.763 24.8139 30.7486 23.5533 30.7486C22.953 30.7486 22.4182 30.9818 22.0089 31.3562H22.0035C21.9598 31.3941 21.9161 31.4375 21.8725 31.4755C21.5669 31.7739 21.2394 32.0397 20.8956 32.2892C20.1862 32.7992 19.4004 33.2061 18.549 33.4827C18.489 33.499 18.4344 33.5207 18.3744 33.537C17.594 33.7703 16.7645 33.9005 15.9078 33.9005H14.4179C13.1355 33.8842 11.9185 33.6292 10.7944 33.1789C10.7398 33.1572 10.6798 33.1355 10.6252 33.1138C9.47371 32.6256 8.43684 31.9258 7.55823 31.0686C7.51457 31.0252 7.47091 30.9818 7.42726 30.9384C6.56502 30.065 5.86104 29.0343 5.36989 27.8896C5.34806 27.8354 5.32623 27.7757 5.3044 27.7214C5.11886 27.2658 4.96606 26.7884 4.85146 26.3001H26.7185C27.9463 26.3001 28.945 25.329 28.9941 24.1193H29.005V24.0271C29.005 23.9945 29.005 23.9674 29.005 23.9348C28.9941 22.047 28.6121 20.2459 27.9409 18.5913H27.9354ZM20.2571 21.754H4.84054C4.95514 21.2658 5.10794 20.7884 5.29349 20.3327C5.31532 20.2784 5.33715 20.2188 5.35898 20.1645C5.85012 19.0198 6.5541 17.9891 7.41634 17.1157C7.46 17.0723 7.50366 17.0289 7.54731 16.9855C8.42592 16.1284 9.46279 15.4285 10.6143 14.9403C10.6688 14.9186 10.7289 14.8969 10.7834 14.8752C11.9076 14.4249 13.1246 14.17 14.407 14.1591C14.4398 14.1591 14.4671 14.1591 14.4998 14.1591C14.5325 14.1591 14.5598 14.1591 14.5926 14.1591C15.875 14.17 17.092 14.4249 18.2162 14.8752C18.2707 14.8969 18.3308 14.9186 18.3853 14.9403C19.5368 15.4285 20.5737 16.1284 21.4523 16.9855C21.4959 17.0289 21.5396 17.0723 21.5832 17.1157C22.4455 17.9891 23.1495 19.0198 23.6406 20.1645C23.6624 20.2188 23.6843 20.2784 23.7061 20.3327C23.8916 20.7884 24.0444 21.2658 24.159 21.754H20.2517H20.2571Z" fill="#0AB27D"/>
<path d="M101.548 33.9005H98.9882C96.909 33.9005 95.1518 32.5117 94.6061 30.6184C94.4915 30.2169 94.426 29.7938 94.426 29.3598V18.8734V2.26765C94.426 2.13202 94.4042 2.00725 94.3823 1.88248C94.3823 1.84993 94.3823 1.81738 94.3714 1.79025C94.3387 1.63835 94.2896 1.48646 94.2241 1.34541C93.8694 0.553367 93.0726 -0.00540161 92.1394 -0.00540161C91.9048 -0.00540161 91.6756 0.032573 91.4627 0.0976722C91.2499 0.162771 91.048 0.26042 90.8624 0.385194C90.6169 0.547942 90.4095 0.759514 90.2458 0.998212C90.1202 1.17723 90.0275 1.37796 89.9565 1.59495C89.891 1.80653 89.8528 2.03437 89.8528 2.26765V29.3598C89.8528 32.7178 91.6919 35.6473 94.4205 37.2151C94.4806 37.2531 94.5406 37.291 94.6006 37.3236C95.9049 38.0343 97.3947 38.4357 98.9828 38.4357H101.542C102.803 38.4357 103.823 37.4212 103.823 36.1681C103.823 34.9149 102.803 33.9005 101.542 33.9005H101.548Z" fill="#0AB27D"/>
<path d="M129.898 18.141L125.374 13.6437C124.926 13.1989 124.337 12.9764 123.753 12.9819H123.748C123.158 12.9819 122.574 13.1989 122.127 13.6437L117.603 18.141C116.713 19.0252 116.713 20.4629 117.603 21.3525C118.492 22.2368 119.938 22.2368 120.833 21.3525L121.466 20.7232V30.9764C121.466 33.2332 119.48 35.0342 117.161 34.7467C115.218 34.508 113.821 32.7666 113.821 30.8191V14.6582C116.637 13.7088 118.661 11.0723 118.661 7.95295C118.661 4.04157 115.469 0.867981 111.534 0.867981C107.6 0.867981 104.407 4.04157 104.407 7.95295C104.407 11.0723 106.437 13.7088 109.248 14.6582V30.7051C109.248 35.2024 112.719 39.0921 117.243 39.3037C122.05 39.5261 126.034 35.7015 126.034 30.971V20.7178L126.667 21.3471C127.557 22.2314 129.003 22.2314 129.898 21.3471C130.787 20.4629 130.787 19.0252 129.898 18.1356V18.141ZM111.534 5.41408C112.942 5.41408 114.094 6.55331 114.094 7.95837C114.094 9.36343 112.948 10.5027 111.534 10.5027C110.121 10.5027 108.975 9.36343 108.975 7.95837C108.975 6.55331 110.121 5.41408 111.534 5.41408Z" fill="#0AB27D"/>
</g>
<defs>
<clipPath id="clip0_95_4503">
<rect width="250" height="39.3145" fill="white"/>
</clipPath>
</defs>
</svg>
